<mxfile host="app.diagrams.net" modified="2021-01-29T15:05:29.924Z" agent="5.0 (Macintosh; Intel Mac OS X 10_14_6) AppleWebKit/537.36 (KHTML, like Gecko) Chrome/86.0.4240.193 Safari/537.36" etag="GZtxz1TI3zXONpa4vz0x" version="14.2.7" type="github">
  <diagram id="SsTSefkYztANpwVvwAEf" name="Page-1">
    <mxGraphModel dx="946" dy="613" grid="1" gridSize="10" guides="1" tooltips="1" connect="1" arrows="1" fold="1" page="1" pageScale="1" pageWidth="850" pageHeight="1100" math="0" shadow="0">
      <root>
        <mxCell id="0" />
        <mxCell id="1" parent="0" />
        <mxCell id="MFuYGOH2GgjJoZriY5Xg-1" value="LineStorage" style="swimlane;fontStyle=1;align=center;verticalAlign=top;childLayout=stackLayout;horizontal=1;startSize=26;horizontalStack=0;resizeParent=1;resizeParentMax=0;resizeLast=0;collapsible=1;marginBottom=0;" vertex="1" parent="1">
          <mxGeometry x="280" y="200" width="260" height="86" as="geometry" />
        </mxCell>
        <mxCell id="MFuYGOH2GgjJoZriY5Xg-2" value="+ field: type" style="text;strokeColor=none;fillColor=none;align=left;verticalAlign=top;spacingLeft=4;spacingRight=4;overflow=hidden;rotatable=0;points=[[0,0.5],[1,0.5]];portConstraint=eastwest;" vertex="1" parent="MFuYGOH2GgjJoZriY5Xg-1">
          <mxGeometry y="26" width="260" height="26" as="geometry" />
        </mxCell>
        <mxCell id="MFuYGOH2GgjJoZriY5Xg-3" value="" style="line;strokeWidth=1;fillColor=none;align=left;verticalAlign=middle;spacingTop=-1;spacingLeft=3;spacingRight=3;rotatable=0;labelPosition=right;points=[];portConstraint=eastwest;" vertex="1" parent="MFuYGOH2GgjJoZriY5Xg-1">
          <mxGeometry y="52" width="260" height="8" as="geometry" />
        </mxCell>
        <mxCell id="MFuYGOH2GgjJoZriY5Xg-4" value="+ getWord(wordindex int, lineindex int): String" style="text;strokeColor=none;fillColor=none;align=left;verticalAlign=top;spacingLeft=4;spacingRight=4;overflow=hidden;rotatable=0;points=[[0,0.5],[1,0.5]];portConstraint=eastwest;" vertex="1" parent="MFuYGOH2GgjJoZriY5Xg-1">
          <mxGeometry y="60" width="260" height="26" as="geometry" />
        </mxCell>
        <mxCell id="MFuYGOH2GgjJoZriY5Xg-5" value="CircularShift" style="swimlane;fontStyle=1;align=center;verticalAlign=top;childLayout=stackLayout;horizontal=1;startSize=26;horizontalStack=0;resizeParent=1;resizeParentMax=0;resizeLast=0;collapsible=1;marginBottom=0;" vertex="1" parent="1">
          <mxGeometry x="700" y="200" width="190" height="130" as="geometry" />
        </mxCell>
        <mxCell id="MFuYGOH2GgjJoZriY5Xg-6" value="+ field: type" style="text;strokeColor=none;fillColor=none;align=left;verticalAlign=top;spacingLeft=4;spacingRight=4;overflow=hidden;rotatable=0;points=[[0,0.5],[1,0.5]];portConstraint=eastwest;" vertex="1" parent="MFuYGOH2GgjJoZriY5Xg-5">
          <mxGeometry y="26" width="190" height="26" as="geometry" />
        </mxCell>
        <mxCell id="MFuYGOH2GgjJoZriY5Xg-7" value="" style="line;strokeWidth=1;fillColor=none;align=left;verticalAlign=middle;spacingTop=-1;spacingLeft=3;spacingRight=3;rotatable=0;labelPosition=right;points=[];portConstraint=eastwest;" vertex="1" parent="MFuYGOH2GgjJoZriY5Xg-5">
          <mxGeometry y="52" width="190" height="8" as="geometry" />
        </mxCell>
        <mxCell id="MFuYGOH2GgjJoZriY5Xg-8" value="+ shiftALine(lineindex:int): void&#xa;&#xa;+ method(type): type" style="text;strokeColor=none;fillColor=none;align=left;verticalAlign=top;spacingLeft=4;spacingRight=4;overflow=hidden;rotatable=0;points=[[0,0.5],[1,0.5]];portConstraint=eastwest;" vertex="1" parent="MFuYGOH2GgjJoZriY5Xg-5">
          <mxGeometry y="60" width="190" height="70" as="geometry" />
        </mxCell>
        <mxCell id="MFuYGOH2GgjJoZriY5Xg-9" value="" style="endArrow=open;endFill=1;endSize=12;html=1;" edge="1" parent="1">
          <mxGeometry width="160" relative="1" as="geometry">
            <mxPoint x="700" y="242.5" as="sourcePoint" />
            <mxPoint x="540" y="242.5" as="targetPoint" />
            <Array as="points">
              <mxPoint x="610" y="242.5" />
            </Array>
          </mxGeometry>
        </mxCell>
        <mxCell id="MFuYGOH2GgjJoZriY5Xg-10" value="Alphabatizer" style="swimlane;fontStyle=1;align=center;verticalAlign=top;childLayout=stackLayout;horizontal=1;startSize=26;horizontalStack=0;resizeParent=1;resizeParentMax=0;resizeLast=0;collapsible=1;marginBottom=0;" vertex="1" parent="1">
          <mxGeometry x="690" y="410" width="225" height="90" as="geometry" />
        </mxCell>
        <mxCell id="MFuYGOH2GgjJoZriY5Xg-11" value="+ field: type" style="text;strokeColor=none;fillColor=none;align=left;verticalAlign=top;spacingLeft=4;spacingRight=4;overflow=hidden;rotatable=0;points=[[0,0.5],[1,0.5]];portConstraint=eastwest;" vertex="1" parent="MFuYGOH2GgjJoZriY5Xg-10">
          <mxGeometry y="26" width="225" height="26" as="geometry" />
        </mxCell>
        <mxCell id="MFuYGOH2GgjJoZriY5Xg-12" value="" style="line;strokeWidth=1;fillColor=none;align=left;verticalAlign=middle;spacingTop=-1;spacingLeft=3;spacingRight=3;rotatable=0;labelPosition=right;points=[];portConstraint=eastwest;" vertex="1" parent="MFuYGOH2GgjJoZriY5Xg-10">
          <mxGeometry y="52" width="225" height="8" as="geometry" />
        </mxCell>
        <mxCell id="MFuYGOH2GgjJoZriY5Xg-13" value="+ sortByAlpha(aShifter: CircularShifter):" style="text;strokeColor=none;fillColor=none;align=left;verticalAlign=top;spacingLeft=4;spacingRight=4;overflow=hidden;rotatable=0;points=[[0,0.5],[1,0.5]];portConstraint=eastwest;" vertex="1" parent="MFuYGOH2GgjJoZriY5Xg-10">
          <mxGeometry y="60" width="225" height="30" as="geometry" />
        </mxCell>
        <mxCell id="MFuYGOH2GgjJoZriY5Xg-14" value="" style="endArrow=open;endFill=1;endSize=12;html=1;exitX=0.5;exitY=0;exitDx=0;exitDy=0;entryX=0.537;entryY=1.043;entryDx=0;entryDy=0;entryPerimeter=0;" edge="1" parent="1" source="MFuYGOH2GgjJoZriY5Xg-10" target="MFuYGOH2GgjJoZriY5Xg-8">
          <mxGeometry width="160" relative="1" as="geometry">
            <mxPoint x="803" y="330" as="sourcePoint" />
            <mxPoint x="910" y="370" as="targetPoint" />
          </mxGeometry>
        </mxCell>
        <mxCell id="MFuYGOH2GgjJoZriY5Xg-15" value="Output" style="swimlane;fontStyle=1;align=center;verticalAlign=top;childLayout=stackLayout;horizontal=1;startSize=26;horizontalStack=0;resizeParent=1;resizeParentMax=0;resizeLast=0;collapsible=1;marginBottom=0;" vertex="1" parent="1">
          <mxGeometry x="685" y="580" width="230" height="86" as="geometry" />
        </mxCell>
        <mxCell id="MFuYGOH2GgjJoZriY5Xg-16" value="+ field: type" style="text;strokeColor=none;fillColor=none;align=left;verticalAlign=top;spacingLeft=4;spacingRight=4;overflow=hidden;rotatable=0;points=[[0,0.5],[1,0.5]];portConstraint=eastwest;" vertex="1" parent="MFuYGOH2GgjJoZriY5Xg-15">
          <mxGeometry y="26" width="230" height="26" as="geometry" />
        </mxCell>
        <mxCell id="MFuYGOH2GgjJoZriY5Xg-17" value="" style="line;strokeWidth=1;fillColor=none;align=left;verticalAlign=middle;spacingTop=-1;spacingLeft=3;spacingRight=3;rotatable=0;labelPosition=right;points=[];portConstraint=eastwest;" vertex="1" parent="MFuYGOH2GgjJoZriY5Xg-15">
          <mxGeometry y="52" width="230" height="8" as="geometry" />
        </mxCell>
        <mxCell id="MFuYGOH2GgjJoZriY5Xg-18" value="+ outputLines(aSorter: Alphabatizer): void" style="text;strokeColor=none;fillColor=none;align=left;verticalAlign=top;spacingLeft=4;spacingRight=4;overflow=hidden;rotatable=0;points=[[0,0.5],[1,0.5]];portConstraint=eastwest;" vertex="1" parent="MFuYGOH2GgjJoZriY5Xg-15">
          <mxGeometry y="60" width="230" height="26" as="geometry" />
        </mxCell>
        <mxCell id="MFuYGOH2GgjJoZriY5Xg-19" value="" style="endArrow=open;endFill=1;endSize=12;html=1;" edge="1" parent="1">
          <mxGeometry width="160" relative="1" as="geometry">
            <mxPoint x="802.5" y="580" as="sourcePoint" />
            <mxPoint x="802" y="500" as="targetPoint" />
          </mxGeometry>
        </mxCell>
        <mxCell id="MFuYGOH2GgjJoZriY5Xg-20" value="Input" style="swimlane;fontStyle=1;align=center;verticalAlign=top;childLayout=stackLayout;horizontal=1;startSize=26;horizontalStack=0;resizeParent=1;resizeParentMax=0;resizeLast=0;collapsible=1;marginBottom=0;" vertex="1" parent="1">
          <mxGeometry x="280" y="410" width="250" height="86" as="geometry" />
        </mxCell>
        <mxCell id="MFuYGOH2GgjJoZriY5Xg-21" value="+ field: type" style="text;strokeColor=none;fillColor=none;align=left;verticalAlign=top;spacingLeft=4;spacingRight=4;overflow=hidden;rotatable=0;points=[[0,0.5],[1,0.5]];portConstraint=eastwest;" vertex="1" parent="MFuYGOH2GgjJoZriY5Xg-20">
          <mxGeometry y="26" width="250" height="26" as="geometry" />
        </mxCell>
        <mxCell id="MFuYGOH2GgjJoZriY5Xg-22" value="" style="line;strokeWidth=1;fillColor=none;align=left;verticalAlign=middle;spacingTop=-1;spacingLeft=3;spacingRight=3;rotatable=0;labelPosition=right;points=[];portConstraint=eastwest;" vertex="1" parent="MFuYGOH2GgjJoZriY5Xg-20">
          <mxGeometry y="52" width="250" height="8" as="geometry" />
        </mxCell>
        <mxCell id="MFuYGOH2GgjJoZriY5Xg-23" value="+ readInput(aLineStorage: LineStorage): void" style="text;strokeColor=none;fillColor=none;align=left;verticalAlign=top;spacingLeft=4;spacingRight=4;overflow=hidden;rotatable=0;points=[[0,0.5],[1,0.5]];portConstraint=eastwest;" vertex="1" parent="MFuYGOH2GgjJoZriY5Xg-20">
          <mxGeometry y="60" width="250" height="26" as="geometry" />
        </mxCell>
        <mxCell id="MFuYGOH2GgjJoZriY5Xg-24" value="" style="endArrow=open;endFill=1;endSize=12;html=1;entryX=0.485;entryY=1;entryDx=0;entryDy=0;entryPerimeter=0;exitX=0.5;exitY=0;exitDx=0;exitDy=0;" edge="1" parent="1" source="MFuYGOH2GgjJoZriY5Xg-20" target="MFuYGOH2GgjJoZriY5Xg-4">
          <mxGeometry width="160" relative="1" as="geometry">
            <mxPoint x="420" y="330" as="sourcePoint" />
            <mxPoint x="419.5" y="440" as="targetPoint" />
          </mxGeometry>
        </mxCell>
      </root>
    </mxGraphModel>
  </diagram>
</mxfile>
